<svg xmlns="http://www.w3.org/2000/svg" viewBox="0 0 395 250"><defs><style>.a{fill:ghostwhite;}.b{fill:#fffef1;}</style></defs><path class="a" d="M392.81,0H2.19A2.19,2.19,0,0,0,0,2.19V247.81A2.19,2.19,0,0,0,2.19,250H392.81a2.19,2.19,0,0,0,2.19-2.19V2.19A2.19,2.19,0,0,0,392.81,0ZM197.5,236A11.5,11.5,0,1,1,209,224.5,11.5,11.5,0,0,1,197.5,236Z"/><path class="b" d="M208.62,224.5a11.12,11.12,0,1,1-9-10.93,11.24,11.24,0,0,1,9,10.93.38.38,0,0,0,.76,0,11.88,11.88,0,1,0-9.73,11.68,12,12,0,0,0,9.73-11.68A.38.38,0,0,0,208.62,224.5Z"/></svg>