<?xml version="1.0" encoding="utf-8"?>
<!-- Generator: Adobe Illustrator 25.2.1, SVG Export Plug-In . SVG Version: 6.00 Build 0)  -->
<svg version="1.1" xmlns="http://www.w3.org/2000/svg" xmlns:xlink="http://www.w3.org/1999/xlink" x="0px" y="0px"
	 viewBox="0 0 59 47" style="enable-background:new 0 0 59 47;" xml:space="preserve">
<style type="text/css">
	.st0{fill:#647C87;}
	.st1{fill:#A48E72;}
	.st2{fill:#FFFFFF;}
</style>
<g id="Layer_2">
	<circle class="st0" cx="58.5" cy="-12.5" r="58.5"/>
</g>
<g id="Layer_1">
	<path class="st1" d="M19,21.2c-0.2-0.2-0.3-0.4-0.4-0.6c-0.1-0.2-0.1-0.5-0.1-0.7c0.3,0,0.7,0,1-0.2c0.2-0.2,0.3-0.5,0.3-0.8V9.1
		c0-0.3-0.1-0.6-0.3-0.8c-0.3-0.2-0.7-0.3-1-0.2c0-0.2,0-0.5,0.1-0.7c0.1-0.2,0.2-0.4,0.4-0.6h5.1c0.3,0.4,0.5,0.8,0.5,1.3
		c-0.3,0-0.7,0.1-1,0.2c-0.2,0.2-0.4,0.5-0.3,0.8v10.3H24c0.9,0.1,1.7-0.3,2.2-1c0.5-0.8,0.8-1.8,0.7-2.8h1.5
		c0.3,0.3,0.5,0.7,0.6,1.2c0.1,0.6,0.2,1.1,0.2,1.7c0.1,0.7-0.1,1.4-0.5,2c-0.3,0.5-0.9,0.7-1.5,0.7L19,21.2z"/>
	<path class="st1" d="M37.9,21.4c-1-0.1-1.8-0.1-2.6-0.1C35.1,21,35,20.7,35,20.4c0.2,0,0.5,0,0.7-0.1c0.1-0.1,0.2-0.3,0.2-0.5v-6.4
		c0-0.2,0-0.4-0.2-0.5c-0.2-0.1-0.4-0.2-0.7-0.1c0-0.3,0.1-0.6,0.3-0.9c0.7,0,1.3,0,1.9-0.1l1-0.1h0.7c0.9,0,1.8,0.2,2.5,0.6
		c0.7,0.4,1.2,1,1.5,1.7c0.3,0.8,0.5,1.6,0.5,2.4c0,0.9-0.2,1.8-0.5,2.6c-0.3,0.8-0.9,1.4-1.6,1.8c-0.8,0.5-1.7,0.7-2.7,0.7
		C38.4,21.5,38.2,21.4,37.9,21.4z M40.4,19.4c0.5-0.9,0.7-1.9,0.6-2.9c0.1-1-0.2-2-0.7-2.9c-0.4-0.6-1.1-1-1.9-1c-0.1,0-0.2,0-0.3,0
		v7.6h0.4C39.2,20.3,39.9,20,40.4,19.4L40.4,19.4z"/>
	<path class="st1" d="M52,20.2c0.2,0.2,0.4,0.2,0.7,0.2c0,0.2,0,0.3-0.1,0.5c-0.1,0.1-0.1,0.3-0.2,0.4h-3.7
		c-0.1-0.1-0.2-0.3-0.2-0.4c-0.1-0.2-0.1-0.3-0.1-0.5c0.5,0,0.8-0.2,0.8-0.6c0-0.2,0-0.4-0.1-0.6L49,18.8h-3.1l-0.1,0.3
		c-0.1,0.2-0.1,0.4-0.1,0.6c0,0.5,0.3,0.7,0.9,0.7c0,0.2,0,0.3-0.1,0.5c-0.1,0.1-0.1,0.3-0.2,0.4h-3.1C43.1,21.2,43,21,43,20.9
		c-0.1-0.2-0.1-0.3-0.1-0.5c0.2,0,0.5-0.1,0.7-0.2c0.2-0.2,0.4-0.4,0.5-0.7l2.2-6.6c-0.4-0.1-0.9-0.2-1.4-0.2c0-0.4,0.1-0.7,0.3-1
		H49l2.6,7.8C51.6,19.8,51.8,20,52,20.2z M48.7,17.8l-1-3.4c-0.1-0.2-0.2-0.5-0.3-0.7l-1.2,4.1H48.7z"/>
	<path class="st2" d="M34.6,5.8c0.3,0,0.7,0.1,1,0.2c0.3,0.1,0.6,0.3,0.8,0.5l-6.2,19.1c-0.3,0-0.7-0.1-1-0.2
		c-0.3-0.1-0.6-0.3-0.9-0.5L34.6,5.8z"/>
</g>
</svg>
